<svg width="100" height="22" viewBox="0 0 100 22" fill="none" xmlns="http://www.w3.org/2000/svg">
<path d="M88.2962 0.296148C88.6866 -0.0945497 89.3257 -0.100762 89.716 0.289935L99.7104 10.2932C99.9117 10.4946 100.008 10.7622 99.9997 11.0277C99.9994 11.0385 99.9989 11.0492 99.9983 11.0598C99.9853 11.2964 99.8897 11.5287 99.7102 11.7084L99.7042 11.7143L89.7157 21.7117C89.3254 22.1024 88.6863 22.0962 88.2959 21.7055C87.9056 21.3148 87.8994 20.6751 88.2897 20.2844L96.5668 12H1.00006C0.447775 12 6.10352e-05 11.5523 6.10352e-05 11C6.10352e-05 10.4477 0.447776 10 1.00006 10H96.5655L88.29 1.7172C87.8997 1.3265 87.9059 0.686845 88.2962 0.296148Z" fill="white"/>
</svg>
