<svg width="100" height="22" viewBox="0 0 100 22" fill="none" xmlns="http://www.w3.org/2000/svg">
<path d="M11.7038 0.296148C11.3135 -0.0945497 10.6744 -0.100762 10.284 0.289935L0.289612 10.2932C0.0883789 10.4946 -0.00746155 10.7622 0.00037384 11.0277C0.000663757 11.0385 0.00112915 11.0492 0.00176239 11.0598C0.0147552 11.2964 0.11039 11.5287 0.289909 11.7084L0.295815 11.7143L10.2843 21.7117C10.6747 22.1024 11.3138 22.0962 11.7041 21.7055C12.0945 21.3148 12.1007 20.6751 11.7103 20.2844L3.43326 12H99C99.5523 12 100 11.5523 100 11C100 10.4477 99.5523 10 99 10H3.43456L11.71 1.7172C12.1004 1.3265 12.0942 0.686845 11.7038 0.296148Z" fill="#789384"/>
</svg>
